<?xml version="1.0" encoding="utf-8"?>
<!-- Generator: Adobe Illustrator 24.2.3, SVG Export Plug-In . SVG Version: 6.00 Build 0)  -->
<svg version="1.1" id="Capa_1"
	xmlns="http://www.w3.org/2000/svg"
	xmlns:xlink="http://www.w3.org/1999/xlink" x="0px" y="0px" viewBox="0 0 512 512" enable-background="new 0 0 512 512" xml:space="preserve" fill='#ffffff'>
	<path d="M256.0005,512C114.8435,512,0,397.1565,0,256.0005S114.8435,0,256.0005,0s256.0005,114.8435,256.0005,256.0005
	S397.1565,512,256.0005,512z M256.0005,32.0002c-123.5152,0-224.0003,100.484-224.0003,224.0003s100.484,224.0003,224.0003,224.0003
	s224.0003-100.484,224.0003-224.0003S379.5158,32.0002,256.0005,32.0002L256.0005,32.0002z"/>
	<path d="M193.0282,378.1628l95.966-255.9094l29.9623,11.2358l-95.966,255.9094L193.0282,378.1628z"/>
	<path id="path-1_36_" d="M180.309,261.3867c-26.4686,0-48.0003-21.5317-48.0003-48.0003s21.5317-48.0003,48.0003-48.0003
	s48.0003,21.5317,48.0003,48.0003S206.7776,261.3867,180.309,261.3867L180.309,261.3867z M180.309,197.3863
	c-8.8279,0-16.0001,7.1722-16.0001,16.0001s7.1722,16.0001,16.0001,16.0001c8.8279,0,16.0001-7.1722,16.0001-16.0001
	S189.1369,197.3863,180.309,197.3863z"/>
	<path id="path-1_35_" d="M345.695,360.6179c-26.4686,0-48.0003-21.5317-48.0003-48.0003c0-26.4686,21.5317-48.0003,48.0003-48.0003
	c26.4686,0,48.0003,21.5317,48.0003,48.0003C393.6953,339.0862,372.1637,360.6179,345.695,360.6179z M345.695,296.6175
	c-8.8279,0-16.0001,7.1722-16.0001,16.0001s7.1722,16.0001,16.0001,16.0001c8.8279,0,16.0001-7.1722,16.0001-16.0001
	S354.5229,296.6175,345.695,296.6175z"/>
</svg>
